<mxfile host="app.diagrams.net" modified="2023-11-16T15:19:14.567Z" agent="Mozilla/5.0 (Windows NT 10.0; Win64; x64) AppleWebKit/537.36 (KHTML, like Gecko) Chrome/119.0.0.0 Safari/537.36" etag="az2WBAIP-OLdF9v4bZXU" version="22.1.2" type="device">
  <diagram name="PÃ¡gina-1" id="69lvdPpOYTad8KI3pczr">
    <mxGraphModel dx="2261" dy="758" grid="1" gridSize="10" guides="1" tooltips="1" connect="1" arrows="1" fold="1" page="1" pageScale="1" pageWidth="827" pageHeight="1169" math="0" shadow="0">
      <root>
        <mxCell id="0" />
        <mxCell id="1" parent="0" />
        <mxCell id="L-yDfB0Obv-z19VKJ8iD-1" value="usuarios" style="rounded=0;whiteSpace=wrap;html=1;" parent="1" vertex="1">
          <mxGeometry x="-300" y="200" width="120" height="60" as="geometry" />
        </mxCell>
        <mxCell id="L-yDfB0Obv-z19VKJ8iD-2" value="restaurantes" style="rounded=0;whiteSpace=wrap;html=1;" parent="1" vertex="1">
          <mxGeometry x="960" y="202.5" width="120" height="60" as="geometry" />
        </mxCell>
        <mxCell id="L-yDfB0Obv-z19VKJ8iD-3" value="apellido" style="ellipse;whiteSpace=wrap;html=1;" parent="1" vertex="1">
          <mxGeometry x="-413" y="280" width="100" height="40" as="geometry" />
        </mxCell>
        <mxCell id="L-yDfB0Obv-z19VKJ8iD-5" value="&lt;u&gt;id_usuario&lt;/u&gt;" style="ellipse;whiteSpace=wrap;html=1;" parent="1" vertex="1">
          <mxGeometry x="-290" y="100" width="100" height="40" as="geometry" />
        </mxCell>
        <mxCell id="L-yDfB0Obv-z19VKJ8iD-7" value="" style="endArrow=none;html=1;rounded=0;entryX=0.5;entryY=1;entryDx=0;entryDy=0;exitX=0.5;exitY=0;exitDx=0;exitDy=0;" parent="1" source="L-yDfB0Obv-z19VKJ8iD-1" target="L-yDfB0Obv-z19VKJ8iD-5" edge="1">
          <mxGeometry width="50" height="50" relative="1" as="geometry">
            <mxPoint x="30" y="420" as="sourcePoint" />
            <mxPoint x="80" y="370" as="targetPoint" />
          </mxGeometry>
        </mxCell>
        <mxCell id="L-yDfB0Obv-z19VKJ8iD-8" value="" style="endArrow=none;html=1;rounded=0;entryX=0.5;entryY=1;entryDx=0;entryDy=0;" parent="1" source="L-yDfB0Obv-z19VKJ8iD-3" target="L-yDfB0Obv-z19VKJ8iD-1" edge="1">
          <mxGeometry width="50" height="50" relative="1" as="geometry">
            <mxPoint x="30" y="390" as="sourcePoint" />
            <mxPoint x="80" y="340" as="targetPoint" />
          </mxGeometry>
        </mxCell>
        <mxCell id="L-yDfB0Obv-z19VKJ8iD-10" value="ubicacion" style="ellipse;whiteSpace=wrap;html=1;" parent="1" vertex="1">
          <mxGeometry x="-220" y="290" width="100" height="40" as="geometry" />
        </mxCell>
        <mxCell id="L-yDfB0Obv-z19VKJ8iD-11" value="" style="endArrow=none;html=1;rounded=0;entryX=0.567;entryY=1.017;entryDx=0;entryDy=0;exitX=0.5;exitY=0;exitDx=0;exitDy=0;entryPerimeter=0;" parent="1" source="L-yDfB0Obv-z19VKJ8iD-10" target="L-yDfB0Obv-z19VKJ8iD-1" edge="1">
          <mxGeometry width="50" height="50" relative="1" as="geometry">
            <mxPoint x="30" y="390" as="sourcePoint" />
            <mxPoint x="80" y="340" as="targetPoint" />
          </mxGeometry>
        </mxCell>
        <mxCell id="L-yDfB0Obv-z19VKJ8iD-12" value="nombre" style="ellipse;whiteSpace=wrap;html=1;" parent="1" vertex="1">
          <mxGeometry x="-450" y="210" width="100" height="40" as="geometry" />
        </mxCell>
        <mxCell id="L-yDfB0Obv-z19VKJ8iD-13" value="" style="endArrow=none;html=1;rounded=0;entryX=1;entryY=0.5;entryDx=0;entryDy=0;exitX=0;exitY=0.5;exitDx=0;exitDy=0;" parent="1" source="L-yDfB0Obv-z19VKJ8iD-1" target="L-yDfB0Obv-z19VKJ8iD-12" edge="1">
          <mxGeometry width="50" height="50" relative="1" as="geometry">
            <mxPoint x="-310" y="230" as="sourcePoint" />
            <mxPoint x="80" y="340" as="targetPoint" />
          </mxGeometry>
        </mxCell>
        <mxCell id="L-yDfB0Obv-z19VKJ8iD-14" value="&lt;u&gt;id_restaurante&lt;/u&gt;" style="ellipse;whiteSpace=wrap;html=1;" parent="1" vertex="1">
          <mxGeometry x="970" y="82.5" width="100" height="40" as="geometry" />
        </mxCell>
        <mxCell id="L-yDfB0Obv-z19VKJ8iD-15" value="nombre" style="ellipse;whiteSpace=wrap;html=1;" parent="1" vertex="1">
          <mxGeometry x="1030" y="282.5" width="100" height="40" as="geometry" />
        </mxCell>
        <mxCell id="L-yDfB0Obv-z19VKJ8iD-19" value="elementos_menu" style="rounded=0;whiteSpace=wrap;html=1;" parent="1" vertex="1">
          <mxGeometry x="590" y="197.5" width="120" height="60" as="geometry" />
        </mxCell>
        <mxCell id="L-yDfB0Obv-z19VKJ8iD-22" value="" style="endArrow=none;html=1;rounded=0;exitX=0.5;exitY=0;exitDx=0;exitDy=0;entryX=0.843;entryY=1.012;entryDx=0;entryDy=0;entryPerimeter=0;" parent="1" target="L-yDfB0Obv-z19VKJ8iD-2" edge="1">
          <mxGeometry width="50" height="50" relative="1" as="geometry">
            <mxPoint x="1080" y="282.5" as="sourcePoint" />
            <mxPoint x="1050" y="272.5" as="targetPoint" />
          </mxGeometry>
        </mxCell>
        <mxCell id="L-yDfB0Obv-z19VKJ8iD-23" value="" style="endArrow=none;html=1;rounded=0;entryX=0.5;entryY=1;entryDx=0;entryDy=0;" parent="1" source="L-yDfB0Obv-z19VKJ8iD-2" target="L-yDfB0Obv-z19VKJ8iD-14" edge="1">
          <mxGeometry width="50" height="50" relative="1" as="geometry">
            <mxPoint x="1020" y="192.5" as="sourcePoint" />
            <mxPoint x="1060" y="342.5" as="targetPoint" />
          </mxGeometry>
        </mxCell>
        <mxCell id="L-yDfB0Obv-z19VKJ8iD-29" value="calificacion" style="ellipse;whiteSpace=wrap;html=1;" parent="1" vertex="1">
          <mxGeometry x="910" y="287.5" width="100" height="40" as="geometry" />
        </mxCell>
        <mxCell id="L-yDfB0Obv-z19VKJ8iD-30" value="" style="endArrow=none;html=1;rounded=0;exitX=0.713;exitY=0.071;exitDx=0;exitDy=0;exitPerimeter=0;entryX=0.25;entryY=1;entryDx=0;entryDy=0;" parent="1" target="L-yDfB0Obv-z19VKJ8iD-2" edge="1">
          <mxGeometry width="50" height="50" relative="1" as="geometry">
            <mxPoint x="981.3000000000002" y="285.3399999999998" as="sourcePoint" />
            <mxPoint x="990" y="272.5" as="targetPoint" />
          </mxGeometry>
        </mxCell>
        <mxCell id="L-yDfB0Obv-z19VKJ8iD-32" value="Precios" style="ellipse;whiteSpace=wrap;html=1;" parent="1" vertex="1">
          <mxGeometry x="520" y="127.5" width="100" height="40" as="geometry" />
        </mxCell>
        <mxCell id="L-yDfB0Obv-z19VKJ8iD-33" value="Plato" style="ellipse;whiteSpace=wrap;html=1;" parent="1" vertex="1">
          <mxGeometry x="740" y="122.5" width="100" height="40" as="geometry" />
        </mxCell>
        <mxCell id="L-yDfB0Obv-z19VKJ8iD-34" value="" style="endArrow=none;html=1;rounded=0;entryX=1;entryY=0;entryDx=0;entryDy=0;exitX=0;exitY=0.5;exitDx=0;exitDy=0;" parent="1" source="L-yDfB0Obv-z19VKJ8iD-33" target="L-yDfB0Obv-z19VKJ8iD-19" edge="1">
          <mxGeometry width="50" height="50" relative="1" as="geometry">
            <mxPoint x="400" y="357.5" as="sourcePoint" />
            <mxPoint x="450" y="307.5" as="targetPoint" />
          </mxGeometry>
        </mxCell>
        <mxCell id="L-yDfB0Obv-z19VKJ8iD-35" value="" style="endArrow=none;html=1;rounded=0;entryX=0.5;entryY=1;entryDx=0;entryDy=0;exitX=0.5;exitY=0;exitDx=0;exitDy=0;" parent="1" source="L-yDfB0Obv-z19VKJ8iD-19" target="L-yDfB0Obv-z19VKJ8iD-32" edge="1">
          <mxGeometry width="50" height="50" relative="1" as="geometry">
            <mxPoint x="400" y="357.5" as="sourcePoint" />
            <mxPoint x="450" y="307.5" as="targetPoint" />
          </mxGeometry>
        </mxCell>
        <mxCell id="L-yDfB0Obv-z19VKJ8iD-42" value="" style="endArrow=none;html=1;rounded=0;entryX=1;entryY=0.5;entryDx=0;entryDy=0;" parent="1" target="L-yDfB0Obv-z19VKJ8iD-2" edge="1">
          <mxGeometry width="50" height="50" relative="1" as="geometry">
            <mxPoint x="1160" y="272.5" as="sourcePoint" />
            <mxPoint x="1250" y="542.5" as="targetPoint" />
          </mxGeometry>
        </mxCell>
        <mxCell id="L-yDfB0Obv-z19VKJ8iD-44" value="" style="endArrow=none;html=1;rounded=0;entryX=1;entryY=0.5;entryDx=0;entryDy=0;exitX=0;exitY=0.5;exitDx=0;exitDy=0;" parent="1" source="L-yDfB0Obv-z19VKJ8iD-19" target="L-yDfB0Obv-z19VKJ8iD-43" edge="1">
          <mxGeometry width="50" height="50" relative="1" as="geometry">
            <mxPoint x="650" y="227.5" as="sourcePoint" />
            <mxPoint x="400" y="227.5" as="targetPoint" />
          </mxGeometry>
        </mxCell>
        <mxCell id="L-yDfB0Obv-z19VKJ8iD-43" value="poseen" style="rhombus;whiteSpace=wrap;html=1;" parent="1" vertex="1">
          <mxGeometry x="420" y="197.5" width="80" height="60" as="geometry" />
        </mxCell>
        <mxCell id="L-yDfB0Obv-z19VKJ8iD-53" value="" style="endArrow=none;html=1;rounded=0;entryX=0;entryY=0.5;entryDx=0;entryDy=0;exitX=1;exitY=0.5;exitDx=0;exitDy=0;" parent="1" source="L-yDfB0Obv-z19VKJ8iD-55" target="L-yDfB0Obv-z19VKJ8iD-46" edge="1">
          <mxGeometry width="50" height="50" relative="1" as="geometry">
            <mxPoint x="-110" y="230" as="sourcePoint" />
            <mxPoint x="320" y="230" as="targetPoint" />
          </mxGeometry>
        </mxCell>
        <mxCell id="L-yDfB0Obv-z19VKJ8iD-46" value="pedidos" style="rounded=0;whiteSpace=wrap;html=1;" parent="1" vertex="1">
          <mxGeometry x="180" y="197.5" width="120" height="60" as="geometry" />
        </mxCell>
        <mxCell id="L-yDfB0Obv-z19VKJ8iD-56" value="" style="endArrow=none;html=1;rounded=0;entryX=0;entryY=0.5;entryDx=0;entryDy=0;exitX=1;exitY=0.5;exitDx=0;exitDy=0;" parent="1" source="L-yDfB0Obv-z19VKJ8iD-1" target="L-yDfB0Obv-z19VKJ8iD-55" edge="1">
          <mxGeometry width="50" height="50" relative="1" as="geometry">
            <mxPoint x="-180" y="230" as="sourcePoint" />
            <mxPoint x="-10" y="230" as="targetPoint" />
          </mxGeometry>
        </mxCell>
        <mxCell id="L-yDfB0Obv-z19VKJ8iD-55" value="realizan" style="rhombus;whiteSpace=wrap;html=1;" parent="1" vertex="1">
          <mxGeometry x="-10" y="200" width="80" height="60" as="geometry" />
        </mxCell>
        <mxCell id="L-yDfB0Obv-z19VKJ8iD-57" value="&lt;u&gt;id pedido&lt;br&gt;&lt;/u&gt;" style="ellipse;whiteSpace=wrap;html=1;" parent="1" vertex="1">
          <mxGeometry x="190" y="87.5" width="100" height="40" as="geometry" />
        </mxCell>
        <mxCell id="L-yDfB0Obv-z19VKJ8iD-58" value="fecha" style="ellipse;whiteSpace=wrap;html=1;" parent="1" vertex="1">
          <mxGeometry x="130" y="297.5" width="100" height="40" as="geometry" />
        </mxCell>
        <mxCell id="L-yDfB0Obv-z19VKJ8iD-60" value="" style="endArrow=none;html=1;rounded=0;entryX=0.5;entryY=1;entryDx=0;entryDy=0;exitX=0.5;exitY=0;exitDx=0;exitDy=0;" parent="1" source="L-yDfB0Obv-z19VKJ8iD-46" target="L-yDfB0Obv-z19VKJ8iD-57" edge="1">
          <mxGeometry width="50" height="50" relative="1" as="geometry">
            <mxPoint x="400" y="387.5" as="sourcePoint" />
            <mxPoint x="450" y="337.5" as="targetPoint" />
          </mxGeometry>
        </mxCell>
        <mxCell id="L-yDfB0Obv-z19VKJ8iD-61" value="" style="endArrow=none;html=1;rounded=0;entryX=0.5;entryY=1;entryDx=0;entryDy=0;exitX=0.5;exitY=0;exitDx=0;exitDy=0;" parent="1" target="L-yDfB0Obv-z19VKJ8iD-46" edge="1">
          <mxGeometry width="50" height="50" relative="1" as="geometry">
            <mxPoint x="180" y="297.4999999999999" as="sourcePoint" />
            <mxPoint x="450" y="337.5" as="targetPoint" />
          </mxGeometry>
        </mxCell>
        <mxCell id="f3Xr8I6jHueGZ5QbluTP-1" value="contacto" style="ellipse;whiteSpace=wrap;html=1;" parent="1" vertex="1">
          <mxGeometry x="910" y="142.5" width="100" height="40" as="geometry" />
        </mxCell>
        <mxCell id="f3Xr8I6jHueGZ5QbluTP-5" value="" style="endArrow=none;html=1;rounded=0;entryX=0.5;entryY=1;entryDx=0;entryDy=0;exitX=0.25;exitY=0;exitDx=0;exitDy=0;" parent="1" source="L-yDfB0Obv-z19VKJ8iD-2" target="f3Xr8I6jHueGZ5QbluTP-1" edge="1">
          <mxGeometry width="50" height="50" relative="1" as="geometry">
            <mxPoint x="900" y="422.5" as="sourcePoint" />
            <mxPoint x="950" y="372.5" as="targetPoint" />
          </mxGeometry>
        </mxCell>
        <mxCell id="f3Xr8I6jHueGZ5QbluTP-6" value="&lt;u&gt;Id_menu&lt;/u&gt;" style="ellipse;whiteSpace=wrap;html=1;" parent="1" vertex="1">
          <mxGeometry x="630" y="97.5" width="100" height="40" as="geometry" />
        </mxCell>
        <mxCell id="f3Xr8I6jHueGZ5QbluTP-7" value="" style="endArrow=none;html=1;rounded=0;exitX=0.75;exitY=0;exitDx=0;exitDy=0;entryX=0.5;entryY=1;entryDx=0;entryDy=0;" parent="1" source="L-yDfB0Obv-z19VKJ8iD-19" target="f3Xr8I6jHueGZ5QbluTP-6" edge="1">
          <mxGeometry width="50" height="50" relative="1" as="geometry">
            <mxPoint x="340" y="417.5" as="sourcePoint" />
            <mxPoint x="680" y="147.5" as="targetPoint" />
          </mxGeometry>
        </mxCell>
        <mxCell id="f3Xr8I6jHueGZ5QbluTP-9" value="1" style="text;strokeColor=none;fillColor=none;html=1;fontSize=24;fontStyle=1;verticalAlign=middle;align=center;" parent="1" vertex="1">
          <mxGeometry x="-180" y="190" width="50" height="40" as="geometry" />
        </mxCell>
        <mxCell id="f3Xr8I6jHueGZ5QbluTP-10" value="N" style="text;strokeColor=none;fillColor=none;html=1;fontSize=24;fontStyle=1;verticalAlign=middle;align=center;" parent="1" vertex="1">
          <mxGeometry x="130" y="187.5" width="50" height="40" as="geometry" />
        </mxCell>
        <mxCell id="f3Xr8I6jHueGZ5QbluTP-11" value="N" style="text;strokeColor=none;fillColor=none;html=1;fontSize=24;fontStyle=1;verticalAlign=middle;align=center;" parent="1" vertex="1">
          <mxGeometry x="300" y="187.5" width="40" height="40" as="geometry" />
        </mxCell>
        <mxCell id="f3Xr8I6jHueGZ5QbluTP-12" value="N" style="text;strokeColor=none;fillColor=none;html=1;fontSize=24;fontStyle=1;verticalAlign=middle;align=center;" parent="1" vertex="1">
          <mxGeometry x="710" y="187.5" width="40" height="40" as="geometry" />
        </mxCell>
        <mxCell id="f3Xr8I6jHueGZ5QbluTP-13" value="N" style="text;strokeColor=none;fillColor=none;html=1;fontSize=24;fontStyle=1;verticalAlign=middle;align=center;" parent="1" vertex="1">
          <mxGeometry x="550" y="187.5" width="40" height="40" as="geometry" />
        </mxCell>
        <mxCell id="f3Xr8I6jHueGZ5QbluTP-14" value="1" style="text;strokeColor=none;fillColor=none;html=1;fontSize=24;fontStyle=1;verticalAlign=middle;align=center;" parent="1" vertex="1">
          <mxGeometry x="910" y="187.5" width="50" height="40" as="geometry" />
        </mxCell>
        <mxCell id="81QTvzQ_yg4JNLgqBm3B-2" value="hora" style="ellipse;whiteSpace=wrap;html=1;" parent="1" vertex="1">
          <mxGeometry x="250" y="297.5" width="100" height="40" as="geometry" />
        </mxCell>
        <mxCell id="81QTvzQ_yg4JNLgqBm3B-5" value="" style="endArrow=none;html=1;rounded=0;entryX=0.5;entryY=1;entryDx=0;entryDy=0;exitX=0.5;exitY=0;exitDx=0;exitDy=0;" parent="1" source="81QTvzQ_yg4JNLgqBm3B-2" target="L-yDfB0Obv-z19VKJ8iD-46" edge="1">
          <mxGeometry width="50" height="50" relative="1" as="geometry">
            <mxPoint x="330" y="427.5" as="sourcePoint" />
            <mxPoint x="380" y="377.5" as="targetPoint" />
          </mxGeometry>
        </mxCell>
        <mxCell id="02MchKj46W4-_6i6ERYP-5" value="ubicacion" style="ellipse;whiteSpace=wrap;html=1;" parent="1" vertex="1">
          <mxGeometry x="1130" y="272.5" width="100" height="40" as="geometry" />
        </mxCell>
        <mxCell id="05SQMcFdeSqN8e0hObWV-1" value="" style="endArrow=none;html=1;rounded=0;entryX=0;entryY=0.5;entryDx=0;entryDy=0;exitX=0;exitY=1;exitDx=0;exitDy=0;" parent="1" source="f3Xr8I6jHueGZ5QbluTP-11" target="L-yDfB0Obv-z19VKJ8iD-43" edge="1">
          <mxGeometry width="50" height="50" relative="1" as="geometry">
            <mxPoint x="490" y="347.5" as="sourcePoint" />
            <mxPoint x="540" y="297.5" as="targetPoint" />
          </mxGeometry>
        </mxCell>
        <mxCell id="05SQMcFdeSqN8e0hObWV-2" value="" style="endArrow=none;html=1;rounded=0;entryX=0;entryY=0.5;entryDx=0;entryDy=0;exitX=1;exitY=0.5;exitDx=0;exitDy=0;" parent="1" source="05SQMcFdeSqN8e0hObWV-4" target="L-yDfB0Obv-z19VKJ8iD-2" edge="1">
          <mxGeometry width="50" height="50" relative="1" as="geometry">
            <mxPoint x="950" y="347.5" as="sourcePoint" />
            <mxPoint x="1000" y="297.5" as="targetPoint" />
          </mxGeometry>
        </mxCell>
        <mxCell id="05SQMcFdeSqN8e0hObWV-7" value="" style="endArrow=none;html=1;rounded=0;exitX=1;exitY=0.5;exitDx=0;exitDy=0;entryX=0;entryY=0.75;entryDx=0;entryDy=0;" parent="1" source="05SQMcFdeSqN8e0hObWV-8" target="L-yDfB0Obv-z19VKJ8iD-2" edge="1">
          <mxGeometry width="50" height="50" relative="1" as="geometry">
            <mxPoint x="380" y="370" as="sourcePoint" />
            <mxPoint x="140" y="500" as="targetPoint" />
          </mxGeometry>
        </mxCell>
        <mxCell id="05SQMcFdeSqN8e0hObWV-9" value="N" style="text;strokeColor=none;fillColor=none;html=1;fontSize=24;fontStyle=1;verticalAlign=middle;align=center;" parent="1" vertex="1">
          <mxGeometry x="-110" y="240" width="50" height="40" as="geometry" />
        </mxCell>
        <mxCell id="05SQMcFdeSqN8e0hObWV-10" value="N" style="text;strokeColor=none;fillColor=none;html=1;fontSize=24;fontStyle=1;verticalAlign=middle;align=center;" parent="1" vertex="1">
          <mxGeometry x="830" y="247.5" width="50" height="40" as="geometry" />
        </mxCell>
        <mxCell id="4HY8sezpFOJDsekjU98Z-1" value="" style="endArrow=none;html=1;rounded=0;exitX=1;exitY=0.5;exitDx=0;exitDy=0;entryX=0;entryY=0.5;entryDx=0;entryDy=0;" edge="1" parent="1" source="L-yDfB0Obv-z19VKJ8iD-1" target="05SQMcFdeSqN8e0hObWV-8">
          <mxGeometry width="50" height="50" relative="1" as="geometry">
            <mxPoint x="-180" y="230" as="sourcePoint" />
            <mxPoint x="140" y="500" as="targetPoint" />
          </mxGeometry>
        </mxCell>
        <mxCell id="05SQMcFdeSqN8e0hObWV-8" value="Restaurante favorito" style="rhombus;whiteSpace=wrap;html=1;" parent="1" vertex="1">
          <mxGeometry x="330" y="480" width="140" height="77.5" as="geometry" />
        </mxCell>
        <mxCell id="4HY8sezpFOJDsekjU98Z-6" value="" style="endArrow=none;html=1;rounded=0;entryX=0;entryY=0.5;entryDx=0;entryDy=0;exitX=1.011;exitY=0.592;exitDx=0;exitDy=0;exitPerimeter=0;" edge="1" parent="1" source="L-yDfB0Obv-z19VKJ8iD-19" target="05SQMcFdeSqN8e0hObWV-4">
          <mxGeometry width="50" height="50" relative="1" as="geometry">
            <mxPoint x="711" y="233" as="sourcePoint" />
            <mxPoint x="960" y="233" as="targetPoint" />
          </mxGeometry>
        </mxCell>
        <mxCell id="05SQMcFdeSqN8e0hObWV-4" value="pertenecen" style="rhombus;whiteSpace=wrap;html=1;" parent="1" vertex="1">
          <mxGeometry x="770" y="202.5" width="80" height="60" as="geometry" />
        </mxCell>
      </root>
    </mxGraphModel>
  </diagram>
</mxfile>
